<!-- Simple WhatsApp SVG icon -->
<svg xmlns="http://www.w3.org/2000/svg" viewBox="0 0 24 24">
  <path fill="#25D366" d="M12 2C6.48 2 2 6.48 2 12c0 1.99.52 3.85 1.42 5.47L2 22l4.7-1.33C8.11 21.09 10.01 22 12 22c5.52 0 10-4.48 10-10S17.52 2 12 2z"/>
  <path fill="#fff" d="M17.5 14.5c-.3-.15-1.75-.86-2.02-.96-.27-.1-.47-.15-.67.15s-.77.96-.94 1.16c-.17.2-.34.22-.63.07-.3-.15-1.13-.42-2.16-1.32-.8-.71-1.34-1.58-1.5-1.88-.16-.3-.02-.46.13-.61.13-.12.3-.32.45-.48.15-.17.2-.28.3-.47.1-.2.05-.37-.02-.52-.07-.15-.63-1.52-.86-2.09-.23-.55-.47-.48-.67-.49-.17-.01-.37-.01-.56-.01-.19 0-.5.07-.77.37-.27.3-1.05 1.02-1.05 2.48s1.08 2.88 1.23 3.08c.15.2 2.12 3.33 5.13 4.67 3.01 1.34 3.01.9 3.56.84.55-.07 1.79-.73 2.05-1.44.27-.71.27-1.32.19-1.44-.08-.12-.28-.2-.59-.35z"/>
</svg>
